<?xml version="1.0" encoding="utf-8"?>
<!-- Generator: Adobe Illustrator 16.0.4, SVG Export Plug-In . SVG Version: 6.00 Build 0)  -->
<!DOCTYPE svg PUBLIC "-//W3C//DTD SVG 1.1//EN" "http://www.w3.org/Graphics/SVG/1.1/DTD/svg11.dtd">
<svg version="1.1" id="Layer_1" xmlns="http://www.w3.org/2000/svg" xmlns:xlink="http://www.w3.org/1999/xlink" x="0px" y="0px"
	 width="50px" height="50px" viewBox="0 0 50 50" enable-background="new 0 0 50 50" xml:space="preserve">
<path d="M30.684,25.182c-0.377-0.218-0.922-0.418-1.635-0.6c0.664-0.226,1.198-0.51,1.604-0.856c0.404-0.345,0.714-0.743,0.93-1.193
	c0.215-0.451,0.322-0.927,0.322-1.429c0-0.69-0.203-1.325-0.61-1.903c-0.406-0.578-0.987-1.021-1.743-1.33
	c-0.292-0.12-0.641-0.209-1.02-0.283v-2.683h-2.576v2.501H24.3v-2.501h-2.576v2.501h-3.929v2.105h0.6
	c0.399,0,0.67,0.036,0.812,0.109c0.142,0.073,0.242,0.171,0.3,0.294c0.058,0.124,0.087,0.411,0.087,0.861v8.482
	c0,0.443-0.029,0.729-0.087,0.856c-0.059,0.127-0.158,0.226-0.3,0.294c-0.142,0.069-0.413,0.104-0.812,0.104h-0.6v2.104h3.929v2.502
	H24.3v-2.502h1.466c0.065,0,0.126-0.002,0.189-0.002v2.504h2.576v-2.719c0.433-0.084,0.813-0.188,1.137-0.318
	c0.89-0.355,1.577-0.874,2.063-1.553c0.485-0.68,0.729-1.424,0.729-2.23c0-0.676-0.16-1.288-0.479-1.837
	C31.66,25.914,31.229,25.486,30.684,25.182z M23.356,19.861h1.667c0.975,0,1.65,0.06,2.028,0.18c0.379,0.12,0.667,0.322,0.867,0.605
	c0.2,0.284,0.3,0.625,0.3,1.025c0,0.385-0.104,0.725-0.315,1.02s-0.525,0.515-0.943,0.659c-0.417,0.146-1.062,0.219-1.936,0.219
	h-1.667V19.861z M28.066,29.259c-0.297,0.378-0.658,0.628-1.082,0.747c-0.425,0.12-0.959,0.18-1.604,0.18h-1.11
	c-0.37,0-0.597-0.021-0.681-0.061c-0.083-0.04-0.143-0.109-0.179-0.212c-0.029-0.08-0.047-0.353-0.054-0.817v-3.294h1.969
	c0.863,0,1.505,0.081,1.926,0.24c0.42,0.16,0.736,0.396,0.946,0.709c0.211,0.313,0.316,0.694,0.316,1.146
	C28.514,28.427,28.364,28.881,28.066,29.259z M42.416,18.264c0.375-0.341,0.707-0.733,0.957-1.191
	c0.585-1.075,0.716-2.314,0.37-3.488c-0.57-1.936-2.377-3.287-4.393-3.287c-0.438,0-0.876,0.063-1.3,0.188
	c-0.296,0.087-0.577,0.203-0.845,0.343c-6.462-5.536-15.839-6.005-22.811-1.138c-6.955,4.854-9.75,13.788-6.817,21.749
	c-1.256,1.146-1.837,2.938-1.325,4.676c0.571,1.936,2.378,3.287,4.394,3.287c0.438,0,0.875-0.062,1.298-0.188
	c0.276-0.082,0.538-0.191,0.789-0.318c0.055,0.097,0.119,0.189,0.208,0.267c3.482,2.987,7.812,4.501,12.157,4.501
	c3.719,0,7.448-1.109,10.666-3.355c6.975-4.867,9.768-13.84,6.793-21.816C42.524,18.404,42.468,18.335,42.416,18.264z
	 M38.616,12.404c0.24-0.071,0.486-0.106,0.733-0.106c1.135,0,2.152,0.762,2.475,1.853c0.195,0.662,0.122,1.36-0.208,1.966
	s-0.876,1.047-1.538,1.243c-1.342,0.395-2.816-0.418-3.209-1.746c-0.195-0.663-0.121-1.361,0.209-1.967
	C37.408,13.04,37.954,12.599,38.616,12.404z M11.379,37.295c-1.341,0.398-2.816-0.418-3.208-1.747
	c-0.403-1.366,0.381-2.806,1.747-3.209c0.239-0.069,0.486-0.106,0.732-0.106c1.136,0,2.154,0.763,2.476,1.854
	c0.195,0.662,0.121,1.36-0.208,1.966C12.587,36.658,12.041,37.1,11.379,37.295z M34.62,38.668
	c-6.228,4.346-14.605,3.926-20.375-1.023c0,0-0.001,0-0.001-0.002c0.157-0.199,0.306-0.406,0.43-0.634
	c0.585-1.075,0.717-2.313,0.37-3.487c-0.571-1.936-2.378-3.287-4.394-3.287c-0.438,0-0.875,0.062-1.299,0.188
	c-0.001,0-0.002,0.001-0.003,0.001C6.921,23.399,9.424,15.6,15.539,11.331c6.143-4.289,14.376-3.927,20.137,0.837
	c-0.125,0.169-0.252,0.335-0.354,0.522c-0.585,1.075-0.717,2.314-0.37,3.488c0.57,1.936,2.377,3.287,4.395,3.287
	c0.438,0,0.875-0.063,1.299-0.188c0.021-0.006,0.039-0.018,0.06-0.024C43.323,26.359,40.828,34.334,34.62,38.668z"/>
</svg>
